<?xml version="1.0" encoding="UTF-8"?>
<svg id="Layer_1" data-name="Layer 1" xmlns="http://www.w3.org/2000/svg" xmlns:xlink="http://www.w3.org/1999/xlink" viewBox="0 0 621.5 314.88">
  <defs>
    <style>
      .cls-1 {
        fill: url(#linear-gradient);
      }
    </style>
    <linearGradient id="linear-gradient" x1="0" y1="158.43" x2="621.5" y2="158.43" gradientTransform="translate(0 315.87) scale(1 -1)" gradientUnits="userSpaceOnUse">
      <stop offset="0" stop-color="#ed1c24"/>
      <stop offset="1" stop-color="#fff200"/>
    </linearGradient>
  </defs>
  <path class="cls-1" d="M116.51,314.06c-1.45-.92,1.96-2.18,9.97-3.69,8.79-1.65,39.1-10.04,54.45-15.06,52.73-17.26,118.17-45.85,179.15-78.27,8.33-4.43,15.83-8.05,16.67-8.05,1.75,0,6.15,8.66,7.17,14.08l.67,3.59-7.83,3.82c-35.2,17.18-82.41,37.32-116.83,49.83-48.38,17.59-88.68,28.02-127.96,33.13-13.9,1.8-13.61,1.79-15.46.62h0ZM54.93,302.91c-26.58-2.72-43.75-12.56-51.81-29.68C.1,266.81-.04,265.93,0,254.49c.03-10.43.4-13.04,2.8-20,7.04-20.42,20.13-39.08,44.59-63.54,19.26-19.26,56.81-49.88,70.51-57.5l4.97-2.77-2.47,2.92c-1.36,1.61-6.97,7.02-12.47,12.02-61.97,56.4-90.15,108.5-68.52,126.7,8.34,7.01,17.57,9.21,35.33,8.4,32.66-1.49,81.17-16.52,148.19-45.93,24.48-10.74,79.04-37.9,99.99-49.77,6.48-3.67,11.54-6.5,19.26-10.76,3.43-1.9,6.48-3.83,6.77-4.3.87-1.42-11.38-15.08-28.47-31.74-17.31-16.88-24.42-19.62-51.05-19.69-9.08-.02-19.2.35-22.5.82-5.33.76-5.83.69-4.5-.64.83-.82,6.45-3.6,12.5-6.18,6.05-2.58,12.8-5.5,15-6.5,2.2-.99,6.79-2.98,10.21-4.42,11.15-4.69,43.5-19.29,56.79-25.63,25.4-12.12,27.84-12.99,36.45-12.99,6.38,0,8.26.38,10.44,2.09,4.82,3.79,5.82,7.1,5.09,16.74-.62,8.04-.49,8.92,1.69,12.13,9.28,13.63,28.71,16.7,48.33,7.61,8.53-3.94,12.72-7.38,16.15-13.23,3.5-5.98,3.5-10.7,0-16.68-2.97-5.07-6.47-7.72-13.4-10.16-2.34-.83-6.39-2.25-9-3.18-7.09-2.5-10.25-6.12-10.25-11.74,0-5.23,1.57-7.3,8.08-10.62C443.42,9.37,486.76.03,504.55,0h6.63l3.26,8.24c8.06,20.33,18.82,38.13,25.91,42.82,8.55,5.66,18.05,3.04,21.83-6.02,4.27-10.24,9.68-13.39,22.91-13.35,8.08.02,9.9.38,15.5,3.04,8.69,4.13,14.14,9.17,17.77,16.44,5.97,11.95,3.28,22.84-6.97,28.16-5.39,2.79-5.63,2.82-17.96,2.22-10.8-.53-12.97-.37-15.98,1.16-9.79,5.01-7.41,11.06,11.91,30.28,7.47,7.43,15.7,15.07,18.29,17,2.6,1.93,4.73,4.26,4.75,5.2.04,2.17-15.09,17.17-25.47,25.23-24.11,18.74-36.57,23.87-45.2,18.61-5.23-3.19-6.64-7.08-5.85-16.13.58-6.66.39-8.31-1.36-11.73-6.69-13.11-25.8-17.11-43.09-9.01-19.4,9.08-25.63,25.53-13.85,36.52,2.83,2.63,10.55,6.26,13.4,6.29,3.56.04,11.92,4.85,13.72,7.9,2.6,4.4,2.25,10.35-.84,14.02-2.7,3.21-12.91,9.65-27.93,17.62-4.95,2.63-9.45,5.09-10,5.48s-3.92,2.29-7.5,4.21c-3.58,1.93-13.92,7.55-23,12.49s-22.35,12.08-29.5,15.86-17.05,9.03-22,11.67c-22.99,12.25-35.9,18.59-38.2,18.75-.89.07,5.59-5.45,10.8-9.2,18.15-13.08,33.32-29.37,38.95-41.84,1.96-4.35,2.42-6.94,2.32-12.94-.16-9.63-2.64-16.58-10.6-29.7l-6.19-10.2-3.04,1.87c-10.33,6.37-72.03,37.9-94.04,48.06-39.65,18.3-75.03,32.78-102.5,41.94-36.65,12.23-63.88,18.56-92.5,21.54-15.24,1.58-21.76,1.66-34,.41h0ZM59.93,249.37c-13.61-3.5-17.61-8.95-15.41-20.97,2.68-14.66,19.24-40.57,40.07-62.66,8.24-8.75,10.26-7.24,2.99,2.25-8.58,11.22-18.8,28.45-23.21,39.14-9.86,23.93-4.25,35.87,18.53,39.42,3.4.53,3.71.76,2.11,1.65-1.98,1.11-21.73,2.04-25.08,1.17ZM109.96,235.65c1.08-.73,6.24-2.82,11.47-4.64,27.08-9.42,76.27-32.09,109.41-50.43,6.55-3.62,12-6.59,12.11-6.59.86,0,39.78-23,56.16-33.18,7.79-4.85,15.01-8.82,16.03-8.82,2.56,0,12.29,10.04,12.29,12.69,0,2.09-1.32,3.01-16,11.1-2.48,1.36-4.95,2.8-5.5,3.19-2.98,2.12-52.71,27.4-66.5,33.8-31.26,14.51-52.72,23.14-78.5,31.56-20.44,6.67-44.29,12.66-50.47,12.66-2.38,0-2.4-.05-.5-1.34Z"/>
</svg>